<svg xmlns="http://www.w3.org/2000/svg" width="320" height="240" viewBox="0 0 320 240" fill="none">
  <rect width="320" height="240" fill="#f8fafc"/>
  <rect x="16" y="24" width="120" height="12" rx="3" fill="#cbd5e1"/>
  <rect x="16" y="56" width="72" height="96" rx="8" fill="#fff" stroke="#e2e8f0"/>
  <rect x="24" y="64" width="56" height="48" rx="4" fill="#dbeafe"/>
  <rect x="24" y="120" width="48" height="8" rx="2" fill="#cbd5e1"/>
  <rect x="96" y="56" width="72" height="96" rx="8" fill="#fff" stroke="#e2e8f0"/>
  <rect x="104" y="64" width="56" height="48" rx="4" fill="#fce7f3"/>
  <rect x="104" y="120" width="48" height="8" rx="2" fill="#cbd5e1"/>
  <rect x="176" y="56" width="72" height="96" rx="8" fill="#fff" stroke="#e2e8f0"/>
  <rect x="184" y="64" width="56" height="48" rx="4" fill="#dcfce7"/>
  <rect x="184" y="120" width="48" height="8" rx="2" fill="#cbd5e1"/>
  <rect x="248" y="56" width="56" height="96" rx="8" fill="#fff" stroke="#e2e8f0"/>
  <rect x="256" y="64" width="40" height="48" rx="4" fill="#fef3c7"/>
</svg>
