<svg xmlns="http://www.w3.org/2000/svg" width="320" height="240" viewBox="0 0 320 240" fill="none">
  <rect width="320" height="240" fill="#f8fafc"/>
  <rect x="16" y="16" width="200" height="24" rx="6" fill="#fff" stroke="#cbd5e1"/>
  <rect x="24" y="24" width="64" height="8" rx="2" fill="#e2e8f0"/>
  <g>
    <rect x="16" y="56" width="88" height="88" rx="8" fill="#fff" stroke="#e2e8f0"/>
    <rect x="24" y="64" width="72" height="48" rx="4" fill="#dbeafe"/>
    <rect x="24" y="120" width="56" height="8" rx="2" fill="#cbd5e1"/>
    <rect x="112" y="56" width="88" height="88" rx="8" fill="#fff" stroke="#e2e8f0"/>
    <rect x="120" y="64" width="72" height="48" rx="4" fill="#fce7f3"/>
    <rect x="120" y="120" width="56" height="8" rx="2" fill="#cbd5e1"/>
    <rect x="208" y="56" width="88" height="88" rx="8" fill="#fff" stroke="#e2e8f0"/>
    <rect x="216" y="64" width="72" height="48" rx="4" fill="#dcfce7"/>
    <rect x="216" y="120" width="56" height="8" rx="2" fill="#cbd5e1"/>
  </g>
  <rect x="16" y="160" width="288" height="64" rx="8" fill="#fff" stroke="#e2e8f0"/>
</svg>
